<mxfile host="app.diagrams.net" modified="2024-02-07T12:10:29.431Z" agent="Mozilla/5.0 (X11; Ubuntu; Linux x86_64; rv:122.0) Gecko/20100101 Firefox/122.0" etag="DM9AD9rf9-Kj9TDHdqlx" version="23.1.1" type="device">
  <diagram name="PÃ¡gina-1" id="5825diiGzuHYsGEGFFf8">
    <mxGraphModel dx="1509" dy="809" grid="1" gridSize="10" guides="1" tooltips="1" connect="1" arrows="1" fold="1" page="1" pageScale="1" pageWidth="827" pageHeight="1169" math="0" shadow="0">
      <root>
        <mxCell id="0" />
        <mxCell id="1" parent="0" />
        <mxCell id="x1oeOxsOCvGb8ofFgFnC-52" value="" style="rounded=0;whiteSpace=wrap;html=1;fillColor=none;" vertex="1" parent="1">
          <mxGeometry x="520" y="3190" width="300" height="142.5" as="geometry" />
        </mxCell>
        <mxCell id="x1oeOxsOCvGb8ofFgFnC-51" value="" style="rounded=0;whiteSpace=wrap;html=1;fillColor=none;" vertex="1" parent="1">
          <mxGeometry x="189" y="3190" width="300" height="142.5" as="geometry" />
        </mxCell>
        <mxCell id="XnqLlPuOiqKdLQTun6Gr-67" value="" style="rounded=0;whiteSpace=wrap;html=1;fillColor=none;" parent="1" vertex="1">
          <mxGeometry x="160" y="2520" width="740" height="260" as="geometry" />
        </mxCell>
        <mxCell id="XnqLlPuOiqKdLQTun6Gr-64" value="" style="rounded=0;whiteSpace=wrap;html=1;fillColor=none;" parent="1" vertex="1">
          <mxGeometry x="100" y="1790" width="840" height="650" as="geometry" />
        </mxCell>
        <mxCell id="XnqLlPuOiqKdLQTun6Gr-40" value="" style="rounded=0;whiteSpace=wrap;html=1;fillColor=none;" parent="1" vertex="1">
          <mxGeometry x="100" y="1450" width="720" height="280" as="geometry" />
        </mxCell>
        <mxCell id="XnqLlPuOiqKdLQTun6Gr-27" value="" style="html=1;whiteSpace=wrap;fillColor=none;" parent="1" vertex="1">
          <mxGeometry x="100" y="1169" width="480" height="251" as="geometry" />
        </mxCell>
        <mxCell id="XnqLlPuOiqKdLQTun6Gr-1" value="" style="rounded=0;whiteSpace=wrap;html=1;fillColor=none;" parent="1" vertex="1">
          <mxGeometry x="240" y="320" width="540" height="420" as="geometry" />
        </mxCell>
        <mxCell id="XnqLlPuOiqKdLQTun6Gr-2" value="FILTER APPLICATION" style="whiteSpace=wrap;html=1;aspect=fixed;fillColor=#f8cecc;strokeColor=#b85450;" parent="1" vertex="1">
          <mxGeometry x="268" y="550" width="100" height="100" as="geometry" />
        </mxCell>
        <mxCell id="XnqLlPuOiqKdLQTun6Gr-3" value="FILTER Config N" style="rounded=0;whiteSpace=wrap;html=1;fillColor=#dae8fc;strokeColor=#6c8ebf;" parent="1" vertex="1">
          <mxGeometry x="270" y="380" width="96" height="90" as="geometry" />
        </mxCell>
        <mxCell id="XnqLlPuOiqKdLQTun6Gr-4" value="FILTER CONTROLLER N" style="rounded=0;whiteSpace=wrap;html=1;fillColor=#e1d5e7;strokeColor=#9673a6;" parent="1" vertex="1">
          <mxGeometry x="460" y="470" width="100" height="90" as="geometry" />
        </mxCell>
        <mxCell id="XnqLlPuOiqKdLQTun6Gr-5" value="WEBHOOK FILTER N" style="rounded=0;whiteSpace=wrap;html=1;fillColor=#ffe6cc;strokeColor=#d79b00;" parent="1" vertex="1">
          <mxGeometry x="460" y="620" width="100" height="95" as="geometry" />
        </mxCell>
        <mxCell id="XnqLlPuOiqKdLQTun6Gr-6" value="KRESOURCE" style="rounded=0;whiteSpace=wrap;html=1;fillColor=#d5e8d4;strokeColor=#82b366;" parent="1" vertex="1">
          <mxGeometry x="655" y="622.5" width="96" height="90" as="geometry" />
        </mxCell>
        <mxCell id="XnqLlPuOiqKdLQTun6Gr-7" value="Sidecar1" style="rounded=0;whiteSpace=wrap;html=1;fillColor=#f5f5f5;fontColor=#333333;strokeColor=#666666;" parent="1" vertex="1">
          <mxGeometry x="633" y="510" width="60" height="30" as="geometry" />
        </mxCell>
        <mxCell id="XnqLlPuOiqKdLQTun6Gr-8" value="Sidecar1" style="rounded=0;whiteSpace=wrap;html=1;fillColor=#f5f5f5;fontColor=#333333;strokeColor=#666666;" parent="1" vertex="1">
          <mxGeometry x="673" y="510" width="60" height="30" as="geometry" />
        </mxCell>
        <mxCell id="XnqLlPuOiqKdLQTun6Gr-9" value="SidecarN" style="rounded=0;whiteSpace=wrap;html=1;fillColor=#f5f5f5;fontColor=#333333;strokeColor=#666666;" parent="1" vertex="1">
          <mxGeometry x="703" y="510" width="60" height="30" as="geometry" />
        </mxCell>
        <mxCell id="XnqLlPuOiqKdLQTun6Gr-10" value="" style="editableCssRules=.*;html=1;shape=image;verticalLabelPosition=bottom;labelBackgroundColor=#ffffff;verticalAlign=top;aspect=fixed;imageAspect=0;image=data:image/svg+xml,PHN2ZyB4bWxucz0iaHR0cDovL3d3dy53My5vcmcvMjAwMC9zdmciIHhtbG5zOnY9Imh0dHBzOi8vdmVjdGEuaW8vbmFubyIgd2lkdGg9IjcwMi44NDYzMTM0NzY1NjI1IiBoZWlnaHQ9IjY4MS45NjcxMDIwNTA3ODEyIiB2aWV3Qm94PSIxMC4wMDEwMjYxNTM1NjQ0NTMgMTAuMDAwOTMzNjQ3MTU1NzYyIDcwMi44NDYzMTM0NzY1NjI1IDY4MS45NjcxMDIwNTA3ODEyIj4mI3hhOwk8c3R5bGUgdHlwZT0idGV4dC9jc3MiPiYjeGE7CS5zdDB7ZmlsbDojMzI2Y2U1O30mI3hhOwkuc3Qxe2ZpbGw6I2ZmZjt9JiN4YTsJPC9zdHlsZT4mI3hhOwk8cGF0aCBjbGFzcz0ic3QwIiBkPSJNMzU4Ljk4NyAxMC4wNmMtNi4yMTMuMzEzLTEyLjMwMSAxLjg1NC0xNy45MDYgNC41MzFMOTYuNzM3IDEzMS4zNDJjLTEyLjgxMSA2LjExOC0yMi4xMTYgMTcuNjg5LTI1LjI4MSAzMS40MzhsLTYwLjI4MSAyNjIuMjVjLTIuODEyIDEyLjIwNy0uNTI0IDI1LjAyNCA2LjM0NCAzNS41MzFhNDYuMzUgNDYuMzUgMCAwIDAgMi42NTYgMy42ODhsMTY5LjEyNSAyMTAuMjgxYzguODY4IDExLjAyMiAyMi4zMTMgMTcuNDQgMzYuNTMxIDE3LjQzOGwyNzEuMjE5LS4wNjJjMTQuMjEyLjAxIDI3LjY1Ny02LjM5NiAzNi41MzEtMTcuNDA2bDE2OS4wNjMtMjEwLjMxM2M4Ljg3My0xMS4wMjggMTIuMTk3LTI1LjQ2NCA5LjAzMS0zOS4yMTlsLTYwLjM3NS0yNjIuMjVjLTMuMTY1LTEzLjc0OC0xMi40Ny0yNS4zMTktMjUuMjgxLTMxLjQzN0wzODEuNjQzIDE0LjU5MmMtNy4wNS0zLjM2OC0xNC44NDEtNC45MjYtMjIuNjU2LTQuNTMxeiIvPiYjeGE7CTxwYXRoIGNsYXNzPSJzdDEgc3QyIiBkPSJNMzYxLjQwOCA5OS4zMDhjLTguMDc3LjAwMS0xNC42MjYgNy4yNzYtMTQuNjI1IDE2LjI1IDAgLjEzOC4wMjguMjY5LjAzMS40MDYtLjAxMiAxLjIxOS0uMDcxIDIuNjg4LS4wMzEgMy43NS4xOTMgNS4xNzYgMS4zMjEgOS4xMzcgMiAxMy45MDYgMS4yMyAxMC4yMDcgMi4yNjEgMTguNjY3IDEuNjI1IDI2LjUzMS0uNjE5IDIuOTY1LTIuODAzIDUuNjc3LTQuNzUgNy41NjNsLS4zNDQgNi4xODhjLTguNzc3LjcyNy0xNy42MTIgMi4wNTktMjYuNDM3IDQuMDYzLTM3Ljk3NSA4LjYyMi03MC42NyAyOC4xODMtOTUuNTYyIDU0LjU5NC0xLjYxNS0xLjEwMi00LjQ0MS0zLjEyOS01LjI4MS0zLjc1LTIuNjExLjM1My01LjI1IDEuMTU4LTguNjg3LS44NDQtNi41NDUtNC40MDYtMTIuNTA2LTEwLjQ4Ny0xOS43MTktMTcuODEyLTMuMzA1LTMuNTA0LTUuNjk4LTYuODQxLTkuNjI1LTEwLjIxOS0uODkyLS43NjctMi4yNTMtMS44MDUtMy4yNS0yLjU5NC0zLjA3LTIuNDQ4LTYuNjkxLTMuNzI0LTEwLjE4Ny0zLjg0NC00LjQ5Ni0uMTU0LTguODI0IDEuNjA0LTExLjY1NiA1LjE1Ni01LjAzNSA2LjMxNS0zLjQyMyAxNS45NjggMy41OTQgMjEuNTYzLjA3MS4wNTcuMTQ3LjEwMS4yMTkuMTU2Ljk2NC43ODIgMi4xNDUgMS43ODMgMy4wMzEgMi40MzggNC4xNjcgMy4wNzcgNy45NzMgNC42NTEgMTIuMTI1IDcuMDk0IDguNzQ3IDUuNDAyIDE1Ljk5OCA5Ljg4MSAyMS43NSAxNS4yODEgMi4yNDYgMi4zOTQgMi42MzkgNi42MTMgMi45MzggOC40MzhsNC42ODggNC4xODhjLTI1LjA5MyAzNy43NjQtMzYuNzA3IDg0LjQwOS0yOS44NDQgMTMxLjkzOGwtNi4xMjUgMS43ODFjLTEuNjE0IDIuMDg1LTMuODk1IDUuMzY1LTYuMjgxIDYuMzQ0LTcuNTI1IDIuMzctMTUuOTk0IDMuMjQxLTI2LjIxOSA0LjMxMy00LjguMzk5LTguOTQyLjE2MS0xNC4wMzEgMS4xMjUtMS4xMi4yMTItMi42ODEuNjE5LTMuOTA2LjkwNi0uMDQzLjAwOS0uMDgyLjAyMi0uMTI1LjAzMS0uMDY3LjAxNS0uMTU1LjA0OC0uMjE5LjA2My04LjYyIDIuMDgzLTE0LjE1OCAxMC4wMDYtMTIuMzc1IDE3LjgxM3MxMC4yMDMgMTIuNTU3IDE4Ljg3NSAxMC42ODhjLjA2My0uMDE0LjE1NC0uMDE3LjIxOS0uMDMxLjA5OC0uMDIyLjE4NC0uMDcuMjgxLS4wOTQgMS4yMDktLjI2NSAyLjcyNC0uNTYxIDMuNzgxLS44NDQgNS4wMDMtMS4zNCA4LjYyNy0zLjMwOCAxMy4xMjUtNS4wMzEgOS42NzctMy40NzEgMTcuNjkyLTYuMzcgMjUuNS03LjUgMy4yNjEtLjI1NSA2LjY5NyAyLjAxMiA4LjQwNiAyLjk2OWw2LjM3NS0xLjA5NGMxNC42NyA0NS40ODMgNDUuNDE0IDgyLjI0NSA4NC4zNDQgMTA1LjMxMmwtMi42NTYgNi4zNzVjLjk1NyAyLjQ3NSAyLjAxMyA1LjgyNSAxLjMgOC4yNjktMi44MzkgNy4zNjEtNy43MDEgMTUuMTMxLTEzLjIzOCAyMy43OTMtMi42ODEgNC4wMDItNS40MjUgNy4xMDgtNy44NDQgMTEuNjg4LS41NzkgMS4wOTYtMS4zMTYgMi43NzktMS44NzUgMy45MzgtMy43NTkgOC4wNDItMS4wMDIgMTcuMzA1IDYuMjE5IDIwLjc4MSA3LjI2NiAzLjQ5OCAxNi4yODQtLjE5MSAyMC4xODctOC4yNS4wMDYtLjAxMS4wMjYtLjAyLjAzMS0uMDMxcy0uMDA0LS4wMjMgMC0uMDMxYy41NTYtMS4xNDMgMS4zNDQtMi42NDQgMS44MTMtMy43MTkgMi4wNzItNC43NDcgMi43NjItOC44MTUgNC4yMTktMTMuNDA2IDMuODctOS43MiA1Ljk5Ni0xOS45MTkgMTEuMzIzLTI2LjI3NCAxLjQ1OS0xLjc0IDMuODM3LTIuNDA5IDYuMzAyLTMuMDdsMy4zMTMtNmMzMy45MzggMTMuMDI3IDcxLjkyNyAxNi41MjIgMTA5Ljg3NSA3LjkwNmExODkuNzcgMTg5Ljc3IDAgMCAwIDI1LjA5NC03LjU2MmwzLjEyNSA1LjYyNWMyLjUwNi44MTUgNS4yNCAxLjIzNiA3LjQ2OSA0LjUzMSAzLjk4NSA2LjgwOSA2LjcxMSAxNC44NjQgMTAuMDMxIDI0LjU5NCAxLjQ1NyA0LjU5MSAyLjE3OCA4LjY1OSA0LjI1IDEzLjQwNi40NzIgMS4wODIgMS4yNTYgMi42MDUgMS44MTMgMy43NSAzLjg5NSA4LjA4NSAxMi45NDIgMTEuNzg3IDIwLjIxOSA4LjI4MSA3LjIxOS0zLjQ3OCA5Ljk4LTEyLjc0IDYuMjE5LTIwLjc4MWwtMS45MDYtMy45MzdjLTIuNDE5LTQuNTgtNS4xNjMtNy42NTQtNy44NDQtMTEuNjU2LTUuNTM3LTguNjYyLTEwLjEzLTE1Ljg1OC0xMi45NjktMjMuMjE5LTEuMTg3LTMuNzk3LjItNi4xNTggMS4xMjUtOC42MjUtLjU1NC0uNjM1LTEuNzM5LTQuMjItMi40MzctNS45MDYgNDAuNDU3LTIzLjg4OCA3MC4yOTktNjIuMDIxIDg0LjMxMy0xMDYuMDYyIDEuODkyLjI5NyA1LjE4Mi44NzkgNi4yNSAxLjA5NCAyLjItMS40NTEgNC4yMjItMy4zNDQgOC4xODgtMy4wMzEgNy44MDggMS4xMjkgMTUuODIzIDQuMDMgMjUuNSA3LjUgNC40OTggMS43MjMgOC4xMjIgMy43MjMgMTMuMTI1IDUuMDYzIDEuMDU3LjI4MyAyLjU3Mi41NDcgMy43ODEuODEzLjA5Ny4wMjQuMTgzLjA3MS4yODEuMDk0LjA2NS4wMTUuMTU2LjAxNy4yMTkuMDMxIDguNjcyIDEuODY3IDE3LjA5NC0yLjg3OSAxOC44NzUtMTAuNjg3cy0zLjc1NC0xNS43MzItMTIuMzc1LTE3LjgxMmMtMS4yNTQtLjI4NS0zLjAzMi0uNzY5LTQuMjUtMS01LjA4OS0uOTY0LTkuMjMxLS43MjYtMTQuMDMxLTEuMTI1LTEwLjIyNS0xLjA3MS0xOC42OTMtMS45NDMtMjYuMjE5LTQuMzEyLTMuMDY4LTEuMTktNS4yNTEtNC44NDEtNi4zMTMtNi4zNDRsLTUuOTA2LTEuNzE5YzMuMDYyLTIyLjE1NCAyLjIzNy00NS4yMTEtMy4wNjItNjguMjgxLTUuMzQ4LTIzLjI4NS0xNC44LTQ0LjU4MS0yNy40MDYtNjMuMzQ0bDUuMTg4LTQuNjU2Yy4yMzctMi42MjQuMDMzLTUuMzc2IDIuNzUtOC4yODEgNS43NTEtNS40MDEgMTMuMDAzLTkuODc5IDIxLjc1LTE1LjI4MSA0LjE1Mi0yLjQ0MyA3Ljk5LTQuMDE3IDEyLjE1Ni03LjA5NC45NDItLjY5NiAyLjIyOS0xLjc5OCAzLjIxOS0yLjU5NCA3LjAxNS01LjU5NiA4LjYzMS0xNS4yNDggMy41OTQtMjEuNTYycy0xNC43OTctNi45MDktMjEuODEyLTEuMzEyYy0uOTk5Ljc5MS0yLjM1NCAxLjgyMy0zLjI1IDIuNTk0LTMuOTI3IDMuMzc4LTYuMzUxIDYuNzE0LTkuNjU2IDEwLjIxOS03LjIxMiA3LjMyNi0xMy4xNzQgMTMuNDM4LTE5LjcxOSAxNy44NDQtMi44MzYgMS42NTEtNi45OSAxLjA4LTguODc1Ljk2OWwtNS41NjIgMy45NjljLTMxLjcxOS0zMy4yNjEtNzQuOTA1LTU0LjUyNS0xMjEuNDA2LTU4LjY1NmwtLjM0NC02LjUzMWMtMS45MDQtMS44MjItNC4yMDMtMy4zNzctNC43ODEtNy4zMTItLjYzNi03Ljg2NC40MjYtMTYuMzI1IDEuNjU2LTI2LjUzMS42NzktNC43NjkgMS44MDctOC43MyAyLTEzLjkwNi4wNDQtMS4xNzctLjAyNi0yLjg4NC0uMDMxLTQuMTU2LS4wMDEtOC45NzQtNi41NDgtMTYuMjUxLTE0LjYyNS0xNi4yNXptLTE4LjMxMiAxMTMuNDM4bC00LjM0NCA3Ni43MTktLjMxMi4xNTZjLS4yOTEgNi44NjMtNS45NCAxMi4zNDQtMTIuODc1IDEyLjM0NGExMi44MiAxMi44MiAwIDAgMS03LjU5NC0yLjQ2OWwtLjEyNS4wNjMtNjIuOTA2LTQ0LjU5NGMxOS4zMzQtMTkuMDExIDQ0LjA2My0zMy4wNiA3Mi41NjItMzkuNTMxIDUuMjA2LTEuMTgyIDEwLjQxLTIuMDU5IDE1LjU5NC0yLjY4N3ptMzYuNjU2IDBjMzMuMjczIDQuMDkyIDY0LjA0NSAxOS4xNTkgODcuNjI1IDQyLjI1bC02Mi41IDQ0LjMxMy0uMjE5LS4wOTRhMTIuOTEgMTIuOTEgMCAwIDEtMTcuNjg3LTIuMzc1Yy0xLjc3MS0yLjIyMS0yLjcwMS00LjgzMi0yLjgxMi03LjQ2OWwtLjA2Mi0uMDMxek0yMzIuMTI2IDI4My42Mmw1Ny40MzcgNTEuMzc1LS4wNjIuMzEzYTEyLjg4IDEyLjg4IDAgMCAxIDEuNjI1IDE3Ljc1IDEyLjg5IDEyLjg5IDAgMCAxLTYuNjg3IDQuNDA2bC0uMDYyLjI1LTczLjYyNSAyMS4yNWMtMy43NDctMzQuMjY1IDQuMzI5LTY3LjU3NCAyMS4zNzUtOTUuMzQ0em0yNTguMTU2LjAzMWM4LjUzNCAxMy44MzMgMTQuOTk3IDI5LjI4MiAxOC44NDQgNDYuMDMxIDMuODAxIDE2LjU0OCA0Ljc1NSAzMy4wNjcgMy4xODggNDkuMDMxbC03NC0yMS4zMTItLjA2Mi0uMzEyYy02LjYyNy0xLjgxMS0xMC42OTktOC41NTItOS4xNTYtMTUuMzEyLjYzMi0yLjc3IDIuMTAyLTUuMTEzIDQuMDk0LTYuODQ0bC0uMDMxLS4xNTYgNTcuMTI1LTUxLjEyNXptLTE0MC42NTYgNTUuMzEzaDIzLjUzMWwxNC42MjUgMTguMjgxLTUuMjUgMjIuODEzLTIxLjEyNSAxMC4xNTYtMjEuMTg3LTEwLjE4Ny01LjI1LTIyLjgxMnptNzUuNDM4IDYyLjU2M2ExMi44MyAxMi44MyAwIDAgMSAyLjk2OS4yMTlsLjEyNS0uMTU2IDc2LjE1NiAxMi44NzVjLTExLjE0NiAzMS4zMTMtMzIuNDczIDU4LjQ0LTYwLjk2OSA3Ni41OTRsLTI5LjU2Mi03MS40MDYuMDk0LS4xMjVjLTIuNzE2LTYuMzEuMDAyLTEzLjcxIDYuMjUtMTYuNzE5IDEuNi0uNzcgMy4yNzEtMS4xOTcgNC45MzgtMS4yODF6bS0xMjcuOTA2LjMxM2ExMi45IDEyLjkgMCAwIDEgMTIuMzc1IDEwLjAzMSAxMi43NyAxMi43NyAwIDAgMS0uNzE5IDcuOTM4bC4yMTkuMjgxLTI5LjI1IDcwLjY4OGMtMjcuMzQ3LTE3LjU0OS00OS4xMjktNDMuODI0LTYwLjc4MS03Ni4wNjJsNzUuNS0xMi44MTIuMTI1LjE1NmMuODQ1LS4xNTUgMS43MDEtLjIzIDIuNTMxLS4yMTl6bTYzLjc4MSAzMC45NjljMi4wMjQtLjA3NCA0LjA3OS4zNDEgNi4wMzEgMS4yODEgMi41NiAxLjIzMyA0LjUzNyAzLjE3MyA1Ljc4MSA1LjVoLjI4MWwzNy4yMTkgNjcuMjVjLTQuODMgMS42MTktOS43OTYgMy4wMDMtMTQuODc1IDQuMTU2LTI4LjQ2NSA2LjQ2My01Ni44MzkgNC41MDUtODIuNTMxLTQuMjVsMzcuMTI1LTY3LjEyNWguMDYzYTEyLjkxIDEyLjkxIDAgMCAxIDEwLjkwNi02LjgxMnoiIHN0cm9rZT0ibm9uZSIgc3Ryb2tlLXdpZHRoPSIuMjUiLz4mI3hhOzwvc3ZnPg==;fontColor=default;" parent="1" vertex="1">
          <mxGeometry x="710.37" y="337" width="52.63" height="50" as="geometry" />
        </mxCell>
        <mxCell id="XnqLlPuOiqKdLQTun6Gr-11" value="&lt;font style=&quot;font-size: 16px;&quot;&gt;KUBERNETES CLUSTER&lt;/font&gt;" style="text;html=1;strokeColor=none;fillColor=none;align=center;verticalAlign=middle;whiteSpace=wrap;rounded=0;" parent="1" vertex="1">
          <mxGeometry x="489" y="347" width="204" height="30" as="geometry" />
        </mxCell>
        <mxCell id="XnqLlPuOiqKdLQTun6Gr-12" value="" style="endArrow=classic;html=1;rounded=0;exitX=0.5;exitY=1;exitDx=0;exitDy=0;entryX=0.5;entryY=0;entryDx=0;entryDy=0;" parent="1" source="XnqLlPuOiqKdLQTun6Gr-3" target="XnqLlPuOiqKdLQTun6Gr-2" edge="1">
          <mxGeometry width="50" height="50" relative="1" as="geometry">
            <mxPoint x="390" y="590" as="sourcePoint" />
            <mxPoint x="440" y="540" as="targetPoint" />
          </mxGeometry>
        </mxCell>
        <mxCell id="XnqLlPuOiqKdLQTun6Gr-13" value="" style="endArrow=classic;html=1;rounded=0;exitX=1;exitY=0.5;exitDx=0;exitDy=0;entryX=0;entryY=0.5;entryDx=0;entryDy=0;" parent="1" source="XnqLlPuOiqKdLQTun6Gr-2" target="XnqLlPuOiqKdLQTun6Gr-5" edge="1">
          <mxGeometry width="50" height="50" relative="1" as="geometry">
            <mxPoint x="390" y="590" as="sourcePoint" />
            <mxPoint x="440" y="540" as="targetPoint" />
            <Array as="points">
              <mxPoint x="420" y="600" />
              <mxPoint x="420" y="668" />
            </Array>
          </mxGeometry>
        </mxCell>
        <mxCell id="XnqLlPuOiqKdLQTun6Gr-14" value="" style="endArrow=classic;html=1;rounded=0;exitX=1;exitY=0.5;exitDx=0;exitDy=0;entryX=0;entryY=0.5;entryDx=0;entryDy=0;" parent="1" source="XnqLlPuOiqKdLQTun6Gr-2" target="XnqLlPuOiqKdLQTun6Gr-4" edge="1">
          <mxGeometry width="50" height="50" relative="1" as="geometry">
            <mxPoint x="390" y="590" as="sourcePoint" />
            <mxPoint x="440" y="540" as="targetPoint" />
            <Array as="points">
              <mxPoint x="420" y="600" />
              <mxPoint x="420" y="515" />
            </Array>
          </mxGeometry>
        </mxCell>
        <mxCell id="XnqLlPuOiqKdLQTun6Gr-15" value="" style="endArrow=classic;html=1;rounded=0;exitX=0;exitY=0.5;exitDx=0;exitDy=0;entryX=1;entryY=0.5;entryDx=0;entryDy=0;" parent="1" source="XnqLlPuOiqKdLQTun6Gr-6" target="XnqLlPuOiqKdLQTun6Gr-5" edge="1">
          <mxGeometry width="50" height="50" relative="1" as="geometry">
            <mxPoint x="390" y="590" as="sourcePoint" />
            <mxPoint x="440" y="540" as="targetPoint" />
          </mxGeometry>
        </mxCell>
        <mxCell id="XnqLlPuOiqKdLQTun6Gr-16" value="" style="endArrow=classic;html=1;rounded=0;exitX=0.5;exitY=0;exitDx=0;exitDy=0;entryX=0.5;entryY=1;entryDx=0;entryDy=0;" parent="1" source="XnqLlPuOiqKdLQTun6Gr-5" target="XnqLlPuOiqKdLQTun6Gr-4" edge="1">
          <mxGeometry width="50" height="50" relative="1" as="geometry">
            <mxPoint x="390" y="590" as="sourcePoint" />
            <mxPoint x="440" y="540" as="targetPoint" />
          </mxGeometry>
        </mxCell>
        <mxCell id="XnqLlPuOiqKdLQTun6Gr-17" value="" style="endArrow=classic;html=1;rounded=0;exitX=0.5;exitY=0;exitDx=0;exitDy=0;entryX=0.5;entryY=0;entryDx=0;entryDy=0;" parent="1" source="XnqLlPuOiqKdLQTun6Gr-4" target="XnqLlPuOiqKdLQTun6Gr-8" edge="1">
          <mxGeometry width="50" height="50" relative="1" as="geometry">
            <mxPoint x="390" y="590" as="sourcePoint" />
            <mxPoint x="440" y="540" as="targetPoint" />
            <Array as="points">
              <mxPoint x="510" y="450" />
              <mxPoint x="703" y="450" />
            </Array>
          </mxGeometry>
        </mxCell>
        <mxCell id="XnqLlPuOiqKdLQTun6Gr-18" value="" style="endArrow=classic;html=1;rounded=0;exitX=0;exitY=1;exitDx=0;exitDy=0;entryX=0.5;entryY=0;entryDx=0;entryDy=0;" parent="1" source="XnqLlPuOiqKdLQTun6Gr-9" target="XnqLlPuOiqKdLQTun6Gr-6" edge="1">
          <mxGeometry width="50" height="50" relative="1" as="geometry">
            <mxPoint x="390" y="590" as="sourcePoint" />
            <mxPoint x="440" y="540" as="targetPoint" />
          </mxGeometry>
        </mxCell>
        <mxCell id="XnqLlPuOiqKdLQTun6Gr-20" value="" style="shape=umlLifeline;perimeter=lifelinePerimeter;whiteSpace=wrap;html=1;container=1;dropTarget=0;collapsible=0;recursiveResize=0;outlineConnect=0;portConstraint=eastwest;newEdgeStyle={&quot;curved&quot;:0,&quot;rounded&quot;:0};participant=umlActor;" parent="1" vertex="1">
          <mxGeometry x="170" y="1060" width="20" height="1380" as="geometry" />
        </mxCell>
        <mxCell id="XnqLlPuOiqKdLQTun6Gr-21" value="Kubernetes API" style="shape=umlLifeline;perimeter=lifelinePerimeter;whiteSpace=wrap;html=1;container=1;dropTarget=0;collapsible=0;recursiveResize=0;outlineConnect=0;portConstraint=eastwest;newEdgeStyle={&quot;curved&quot;:0,&quot;rounded&quot;:0};" parent="1" vertex="1">
          <mxGeometry x="330" y="1070" width="100" height="1370" as="geometry" />
        </mxCell>
        <mxCell id="XnqLlPuOiqKdLQTun6Gr-22" value="FILTER CDR" style="html=1;verticalAlign=bottom;endArrow=block;curved=0;rounded=0;" parent="1" source="XnqLlPuOiqKdLQTun6Gr-20" edge="1">
          <mxGeometry width="80" relative="1" as="geometry">
            <mxPoint x="370" y="1200" as="sourcePoint" />
            <mxPoint x="380" y="1200" as="targetPoint" />
          </mxGeometry>
        </mxCell>
        <mxCell id="XnqLlPuOiqKdLQTun6Gr-23" value="FILTER APP" style="html=1;verticalAlign=bottom;endArrow=block;curved=0;rounded=0;" parent="1" edge="1">
          <mxGeometry width="80" relative="1" as="geometry">
            <mxPoint x="179.5" y="1266" as="sourcePoint" />
            <mxPoint x="379.5" y="1266" as="targetPoint" />
          </mxGeometry>
        </mxCell>
        <mxCell id="XnqLlPuOiqKdLQTun6Gr-25" value="FILTER APP" style="shape=umlLifeline;perimeter=lifelinePerimeter;whiteSpace=wrap;html=1;container=1;dropTarget=0;collapsible=0;recursiveResize=0;outlineConnect=0;portConstraint=eastwest;newEdgeStyle={&quot;curved&quot;:0,&quot;rounded&quot;:0};" parent="1" vertex="1">
          <mxGeometry x="460" y="1310" width="100" height="1130" as="geometry" />
        </mxCell>
        <mxCell id="XnqLlPuOiqKdLQTun6Gr-26" value="Create" style="html=1;verticalAlign=bottom;endArrow=block;curved=0;rounded=0;" parent="1" edge="1">
          <mxGeometry width="80" relative="1" as="geometry">
            <mxPoint x="380" y="1330" as="sourcePoint" />
            <mxPoint x="460" y="1330" as="targetPoint" />
          </mxGeometry>
        </mxCell>
        <mxCell id="XnqLlPuOiqKdLQTun6Gr-28" value="&lt;font style=&quot;font-size: 14px;&quot;&gt;&lt;b&gt;InstalaciÃ³n AplicaciÃ³n&lt;/b&gt;&lt;/font&gt;" style="text;html=1;strokeColor=none;fillColor=none;align=center;verticalAlign=middle;whiteSpace=wrap;rounded=0;" parent="1" vertex="1">
          <mxGeometry x="410" y="1180" width="160" height="30" as="geometry" />
        </mxCell>
        <mxCell id="XnqLlPuOiqKdLQTun6Gr-30" value="FILTER 1" style="html=1;verticalAlign=bottom;endArrow=block;curved=0;rounded=0;" parent="1" target="XnqLlPuOiqKdLQTun6Gr-21" edge="1">
          <mxGeometry width="80" relative="1" as="geometry">
            <mxPoint x="180" y="1500" as="sourcePoint" />
            <mxPoint x="260" y="1500" as="targetPoint" />
          </mxGeometry>
        </mxCell>
        <mxCell id="XnqLlPuOiqKdLQTun6Gr-31" value="FILTER1 CONTROLLER" style="shape=umlLifeline;perimeter=lifelinePerimeter;whiteSpace=wrap;html=1;container=1;dropTarget=0;collapsible=0;recursiveResize=0;outlineConnect=0;portConstraint=eastwest;newEdgeStyle={&quot;curved&quot;:0,&quot;rounded&quot;:0};" parent="1" vertex="1">
          <mxGeometry x="710.37" y="1604" width="100" height="836" as="geometry" />
        </mxCell>
        <mxCell id="XnqLlPuOiqKdLQTun6Gr-55" value="" style="html=1;points=[[0,0,0,0,5],[0,1,0,0,-5],[1,0,0,0,5],[1,1,0,0,-5]];perimeter=orthogonalPerimeter;outlineConnect=0;targetShapes=umlLifeline;portConstraint=eastwest;newEdgeStyle={&quot;curved&quot;:0,&quot;rounded&quot;:0};" parent="XnqLlPuOiqKdLQTun6Gr-31" vertex="1">
          <mxGeometry x="45.629999999999995" y="466" width="10" height="40" as="geometry" />
        </mxCell>
        <mxCell id="XnqLlPuOiqKdLQTun6Gr-56" value="InyectSidecars" style="html=1;align=left;spacingLeft=2;endArrow=block;rounded=0;edgeStyle=orthogonalEdgeStyle;curved=0;rounded=0;" parent="XnqLlPuOiqKdLQTun6Gr-31" target="XnqLlPuOiqKdLQTun6Gr-55" edge="1">
          <mxGeometry relative="1" as="geometry">
            <mxPoint x="50.629999999999995" y="446" as="sourcePoint" />
            <Array as="points">
              <mxPoint x="80.63" y="476" />
            </Array>
          </mxGeometry>
        </mxCell>
        <mxCell id="XnqLlPuOiqKdLQTun6Gr-57" value="" style="html=1;points=[[0,0,0,0,5],[0,1,0,0,-5],[1,0,0,0,5],[1,1,0,0,-5]];perimeter=orthogonalPerimeter;outlineConnect=0;targetShapes=umlLifeline;portConstraint=eastwest;newEdgeStyle={&quot;curved&quot;:0,&quot;rounded&quot;:0};" parent="XnqLlPuOiqKdLQTun6Gr-31" vertex="1">
          <mxGeometry x="45.629999999999995" y="546" width="10" height="40" as="geometry" />
        </mxCell>
        <mxCell id="XnqLlPuOiqKdLQTun6Gr-58" value="OrderByPriority" style="html=1;align=left;spacingLeft=2;endArrow=block;rounded=0;edgeStyle=orthogonalEdgeStyle;curved=0;rounded=0;" parent="XnqLlPuOiqKdLQTun6Gr-31" target="XnqLlPuOiqKdLQTun6Gr-57" edge="1">
          <mxGeometry relative="1" as="geometry">
            <mxPoint x="50.629999999999995" y="526" as="sourcePoint" />
            <Array as="points">
              <mxPoint x="80.63" y="556" />
            </Array>
          </mxGeometry>
        </mxCell>
        <mxCell id="XnqLlPuOiqKdLQTun6Gr-33" value="NewFilter" style="html=1;verticalAlign=bottom;endArrow=block;curved=0;rounded=0;" parent="1" target="XnqLlPuOiqKdLQTun6Gr-25" edge="1">
          <mxGeometry width="80" relative="1" as="geometry">
            <mxPoint x="380" y="1559" as="sourcePoint" />
            <mxPoint x="460" y="1559" as="targetPoint" />
          </mxGeometry>
        </mxCell>
        <mxCell id="XnqLlPuOiqKdLQTun6Gr-34" value="{config}" style="text;html=1;strokeColor=none;fillColor=none;align=center;verticalAlign=middle;whiteSpace=wrap;rounded=0;" parent="1" vertex="1">
          <mxGeometry x="250" y="1500" width="60" height="30" as="geometry" />
        </mxCell>
        <mxCell id="XnqLlPuOiqKdLQTun6Gr-35" value="{config}" style="text;html=1;strokeColor=none;fillColor=none;align=center;verticalAlign=middle;whiteSpace=wrap;rounded=0;" parent="1" vertex="1">
          <mxGeometry x="414" y="1560" width="60" height="30" as="geometry" />
        </mxCell>
        <mxCell id="XnqLlPuOiqKdLQTun6Gr-36" value="Create" style="html=1;verticalAlign=bottom;endArrow=block;curved=0;rounded=0;" parent="1" source="XnqLlPuOiqKdLQTun6Gr-25" edge="1">
          <mxGeometry width="80" relative="1" as="geometry">
            <mxPoint x="510" y="1650" as="sourcePoint" />
            <mxPoint x="710" y="1620" as="targetPoint" />
          </mxGeometry>
        </mxCell>
        <mxCell id="XnqLlPuOiqKdLQTun6Gr-32" value="WEBHOOK FILTER1" style="shape=umlLifeline;perimeter=lifelinePerimeter;whiteSpace=wrap;html=1;container=1;dropTarget=0;collapsible=0;recursiveResize=0;outlineConnect=0;portConstraint=eastwest;newEdgeStyle={&quot;curved&quot;:0,&quot;rounded&quot;:0};" parent="1" vertex="1">
          <mxGeometry x="590" y="1670" width="100" height="770" as="geometry" />
        </mxCell>
        <mxCell id="XnqLlPuOiqKdLQTun6Gr-39" value="Create" style="html=1;verticalAlign=bottom;endArrow=block;curved=0;rounded=0;" parent="1" edge="1">
          <mxGeometry width="80" relative="1" as="geometry">
            <mxPoint x="510" y="1690" as="sourcePoint" />
            <mxPoint x="590" y="1690" as="targetPoint" />
          </mxGeometry>
        </mxCell>
        <mxCell id="XnqLlPuOiqKdLQTun6Gr-41" value="&lt;font style=&quot;font-size: 14px;&quot;&gt;&lt;b&gt;InstalaciÃ³n Filtro&lt;br&gt;&lt;/b&gt;&lt;/font&gt;" style="text;html=1;strokeColor=none;fillColor=none;align=center;verticalAlign=middle;whiteSpace=wrap;rounded=0;" parent="1" vertex="1">
          <mxGeometry x="666.5" y="1460" width="160" height="30" as="geometry" />
        </mxCell>
        <mxCell id="XnqLlPuOiqKdLQTun6Gr-42" value="Deployment / KnativeService" style="html=1;verticalAlign=bottom;endArrow=block;curved=0;rounded=0;" parent="1" target="XnqLlPuOiqKdLQTun6Gr-21" edge="1">
          <mxGeometry width="80" relative="1" as="geometry">
            <mxPoint x="180" y="1840" as="sourcePoint" />
            <mxPoint x="260" y="1840" as="targetPoint" />
          </mxGeometry>
        </mxCell>
        <mxCell id="XnqLlPuOiqKdLQTun6Gr-43" value="&lt;div align=&quot;left&quot;&gt;labels:&lt;/div&gt;&lt;div align=&quot;left&quot;&gt;&lt;span style=&quot;white-space: pre;&quot;&gt;&#x9;&lt;/span&gt;- filter1: sidecar&lt;br&gt;&lt;/div&gt;" style="text;html=1;strokeColor=none;fillColor=none;align=left;verticalAlign=middle;whiteSpace=wrap;rounded=0;" parent="1" vertex="1">
          <mxGeometry x="220" y="1850" width="120" height="30" as="geometry" />
        </mxCell>
        <mxCell id="XnqLlPuOiqKdLQTun6Gr-45" value="NewResource" style="html=1;verticalAlign=bottom;endArrow=block;curved=0;rounded=0;" parent="1" target="XnqLlPuOiqKdLQTun6Gr-32" edge="1">
          <mxGeometry width="80" relative="1" as="geometry">
            <mxPoint x="380" y="1910" as="sourcePoint" />
            <mxPoint x="460" y="1910" as="targetPoint" />
          </mxGeometry>
        </mxCell>
        <mxCell id="XnqLlPuOiqKdLQTun6Gr-47" value="Resource" style="html=1;verticalAlign=bottom;endArrow=block;curved=0;rounded=0;" parent="1" target="XnqLlPuOiqKdLQTun6Gr-31" edge="1">
          <mxGeometry width="80" relative="1" as="geometry">
            <mxPoint x="640" y="1940" as="sourcePoint" />
            <mxPoint x="720" y="1940" as="targetPoint" />
          </mxGeometry>
        </mxCell>
        <mxCell id="XnqLlPuOiqKdLQTun6Gr-51" value="alt" style="shape=umlFrame;whiteSpace=wrap;html=1;pointerEvents=0;recursiveResize=0;container=1;collapsible=0;width=80;height=20;" parent="1" vertex="1">
          <mxGeometry x="660" y="1980" width="213.5" height="230" as="geometry" />
        </mxCell>
        <mxCell id="XnqLlPuOiqKdLQTun6Gr-52" value="[hasFilterLabel()]" style="text;html=1;strokeColor=none;fillColor=none;align=center;verticalAlign=middle;whiteSpace=wrap;rounded=0;" parent="XnqLlPuOiqKdLQTun6Gr-51" vertex="1">
          <mxGeometry x="18.5" y="22" width="60" height="20" as="geometry" />
        </mxCell>
        <mxCell id="XnqLlPuOiqKdLQTun6Gr-59" value="Resource" style="html=1;verticalAlign=bottom;endArrow=block;curved=0;rounded=0;" parent="1" source="XnqLlPuOiqKdLQTun6Gr-31" edge="1">
          <mxGeometry width="80" relative="1" as="geometry">
            <mxPoint x="693" y="2270" as="sourcePoint" />
            <mxPoint x="380" y="2270" as="targetPoint" />
          </mxGeometry>
        </mxCell>
        <mxCell id="XnqLlPuOiqKdLQTun6Gr-60" value="Resource" style="shape=umlLifeline;perimeter=lifelinePerimeter;whiteSpace=wrap;html=1;container=1;dropTarget=0;collapsible=0;recursiveResize=0;outlineConnect=0;portConstraint=eastwest;newEdgeStyle={&quot;curved&quot;:0,&quot;rounded&quot;:0};" parent="1" vertex="1">
          <mxGeometry x="810.37" y="2320" width="100" height="120" as="geometry" />
        </mxCell>
        <mxCell id="XnqLlPuOiqKdLQTun6Gr-61" value="Create" style="html=1;verticalAlign=bottom;endArrow=block;curved=0;rounded=0;" parent="1" source="XnqLlPuOiqKdLQTun6Gr-21" edge="1">
          <mxGeometry width="80" relative="1" as="geometry">
            <mxPoint x="430" y="2338" as="sourcePoint" />
            <mxPoint x="809.8699999999999" y="2338" as="targetPoint" />
          </mxGeometry>
        </mxCell>
        <mxCell id="XnqLlPuOiqKdLQTun6Gr-66" value="&lt;b&gt;CreaciÃ³n de un Recurso&lt;br&gt;&lt;/b&gt;" style="text;html=1;strokeColor=none;fillColor=none;align=center;verticalAlign=middle;whiteSpace=wrap;rounded=0;" parent="1" vertex="1">
          <mxGeometry x="780.37" y="1800" width="160" height="30" as="geometry" />
        </mxCell>
        <mxCell id="XnqLlPuOiqKdLQTun6Gr-68" value="&lt;font style=&quot;font-size: 16px;&quot;&gt;Knative Resource&lt;br&gt;&lt;/font&gt;" style="text;html=1;strokeColor=none;fillColor=none;align=center;verticalAlign=middle;whiteSpace=wrap;rounded=0;" parent="1" vertex="1">
          <mxGeometry x="690" y="2530" width="170.37" height="30" as="geometry" />
        </mxCell>
        <mxCell id="XnqLlPuOiqKdLQTun6Gr-70" value="" style="editableCssRules=.*;html=1;shape=image;verticalLabelPosition=bottom;labelBackgroundColor=#ffffff;verticalAlign=top;aspect=fixed;imageAspect=0;image=data:image/svg+xml,PHN2ZyB4bWxucz0iaHR0cDovL3d3dy53My5vcmcvMjAwMC9zdmciIHhtbG5zOnY9Imh0dHBzOi8vdmVjdGEuaW8vbmFubyIgd2lkdGg9IjIwIiBoZWlnaHQ9IjE5Ljk4OTk5OTc3MTExODE2NCIgdmlld0JveD0iMCAwIDIwIDE5Ljk4OTk5OTc3MTExODE2NCI+JiN4YTsJPHN0eWxlIHR5cGU9InRleHQvY3NzIj4mI3hhOwkuc3Qwe2ZpbGw6IzQyODVmNDt9JiN4YTsJLnN0MXtmaWxsOiM2NjlkZjY7fSYjeGE7CS5zdDJ7ZmlsbDojYWVjYmZhO30mI3hhOwk8L3N0eWxlPiYjeGE7CTxwYXRoIGNsYXNzPSJzdDEiIGQ9Ik0zIDMuOTlMMCA2LjQydjcuMTNsMyAyLjQ0eiIvPiYjeGE7CTxwYXRoIGNsYXNzPSJzdDAiIGQ9Ik0zIDMuOTlsLTMgNCAzLTJ6bS0zIDhsMyA0di0yeiIvPiYjeGE7CTxwYXRoIGNsYXNzPSJzdDIiIGQ9Ik0wIDE1Ljk5bDQgNCAyLTItNi02em0uMDEtOEw1Ljk5IDJsLTItMkwwIDMuOTl6Ii8+JiN4YTsJPHBhdGggY2xhc3M9InN0MSIgZD0iTTE3IDE2bDMtMi40MlY2LjQ0TDE3IDR6Ii8+JiN4YTsJPHBhdGggY2xhc3M9InN0MCIgZD0iTTE3IDE2bDMtNC0zIDJ6bTMtOGwtMy00djJ6Ii8+JiN4YTsJPGcgY2xhc3M9InN0MiI+JiN4YTsJCTxwYXRoIGQ9Ik0yMCA0bC00LTQtMiAyIDYgNnptLS4wMSA4bC01Ljk4IDUuOTkgMiAyTDIwIDE2eiIvPiYjeGE7CQk8Y2lyY2xlIGN4PSI2IiBjeT0iOS45OSIgcj0iMSIvPiYjeGE7CQk8Y2lyY2xlIGN4PSIxMCIgY3k9IjkuOTkiIHI9IjEiLz4mI3hhOwkJPGNpcmNsZSBjeD0iMTMuOTkiIGN5PSI5Ljk5IiByPSIxIi8+JiN4YTsJPC9nPiYjeGE7PC9zdmc+;" parent="1" vertex="1">
          <mxGeometry x="850.37" y="2525" width="40" height="40" as="geometry" />
        </mxCell>
        <mxCell id="XnqLlPuOiqKdLQTun6Gr-71" value="Queue Proxy" style="rounded=0;whiteSpace=wrap;html=1;" parent="1" vertex="1">
          <mxGeometry x="190" y="2620" width="122" height="95" as="geometry" />
        </mxCell>
        <mxCell id="XnqLlPuOiqKdLQTun6Gr-72" value="Sidecar 1" style="rounded=0;whiteSpace=wrap;html=1;" parent="1" vertex="1">
          <mxGeometry x="330" y="2620" width="122" height="95" as="geometry" />
        </mxCell>
        <mxCell id="XnqLlPuOiqKdLQTun6Gr-73" value="Sidecar 2" style="rounded=0;whiteSpace=wrap;html=1;" parent="1" vertex="1">
          <mxGeometry x="470" y="2620" width="122" height="95" as="geometry" />
        </mxCell>
        <mxCell id="XnqLlPuOiqKdLQTun6Gr-74" value="Sidecar N" style="rounded=0;whiteSpace=wrap;html=1;" parent="1" vertex="1">
          <mxGeometry x="610" y="2620" width="122" height="95" as="geometry" />
        </mxCell>
        <mxCell id="XnqLlPuOiqKdLQTun6Gr-75" value="User Container" style="rounded=0;whiteSpace=wrap;html=1;" parent="1" vertex="1">
          <mxGeometry x="749.37" y="2620" width="122" height="95" as="geometry" />
        </mxCell>
        <mxCell id="XnqLlPuOiqKdLQTun6Gr-76" value="" style="endArrow=classic;html=1;rounded=0;exitX=0.5;exitY=0;exitDx=0;exitDy=0;entryX=0.5;entryY=0;entryDx=0;entryDy=0;" parent="1" source="XnqLlPuOiqKdLQTun6Gr-71" target="XnqLlPuOiqKdLQTun6Gr-72" edge="1">
          <mxGeometry width="50" height="50" relative="1" as="geometry">
            <mxPoint x="630" y="2600" as="sourcePoint" />
            <mxPoint x="680" y="2550" as="targetPoint" />
            <Array as="points">
              <mxPoint x="290" y="2590" />
              <mxPoint x="350" y="2590" />
            </Array>
          </mxGeometry>
        </mxCell>
        <mxCell id="XnqLlPuOiqKdLQTun6Gr-77" value="" style="endArrow=classic;html=1;rounded=0;exitX=0.5;exitY=0;exitDx=0;exitDy=0;entryX=0.5;entryY=0;entryDx=0;entryDy=0;" parent="1" edge="1">
          <mxGeometry width="50" height="50" relative="1" as="geometry">
            <mxPoint x="390" y="2620" as="sourcePoint" />
            <mxPoint x="530" y="2620" as="targetPoint" />
            <Array as="points">
              <mxPoint x="429" y="2590" />
              <mxPoint x="489" y="2590" />
            </Array>
          </mxGeometry>
        </mxCell>
        <mxCell id="XnqLlPuOiqKdLQTun6Gr-78" value="" style="endArrow=classic;html=1;rounded=0;exitX=0.5;exitY=0;exitDx=0;exitDy=0;entryX=0.5;entryY=0;entryDx=0;entryDy=0;" parent="1" edge="1">
          <mxGeometry width="50" height="50" relative="1" as="geometry">
            <mxPoint x="530" y="2620" as="sourcePoint" />
            <mxPoint x="670" y="2620" as="targetPoint" />
            <Array as="points">
              <mxPoint x="569" y="2590" />
              <mxPoint x="629" y="2590" />
            </Array>
          </mxGeometry>
        </mxCell>
        <mxCell id="XnqLlPuOiqKdLQTun6Gr-79" value="" style="endArrow=classic;html=1;rounded=0;exitX=0.5;exitY=0;exitDx=0;exitDy=0;entryX=0.5;entryY=0;entryDx=0;entryDy=0;" parent="1" edge="1">
          <mxGeometry width="50" height="50" relative="1" as="geometry">
            <mxPoint x="670" y="2620" as="sourcePoint" />
            <mxPoint x="810" y="2620" as="targetPoint" />
            <Array as="points">
              <mxPoint x="709" y="2590" />
              <mxPoint x="769" y="2590" />
            </Array>
          </mxGeometry>
        </mxCell>
        <mxCell id="XnqLlPuOiqKdLQTun6Gr-81" value="" style="endArrow=classic;html=1;rounded=0;exitX=0.5;exitY=1;exitDx=0;exitDy=0;entryX=0.5;entryY=1;entryDx=0;entryDy=0;" parent="1" source="XnqLlPuOiqKdLQTun6Gr-75" target="XnqLlPuOiqKdLQTun6Gr-74" edge="1">
          <mxGeometry width="50" height="50" relative="1" as="geometry">
            <mxPoint x="630" y="2600" as="sourcePoint" />
            <mxPoint x="680" y="2550" as="targetPoint" />
            <Array as="points">
              <mxPoint x="770" y="2740" />
              <mxPoint x="710" y="2740" />
            </Array>
          </mxGeometry>
        </mxCell>
        <mxCell id="XnqLlPuOiqKdLQTun6Gr-82" value="" style="endArrow=classic;html=1;rounded=0;exitX=0.5;exitY=1;exitDx=0;exitDy=0;entryX=0.5;entryY=1;entryDx=0;entryDy=0;" parent="1" edge="1">
          <mxGeometry width="50" height="50" relative="1" as="geometry">
            <mxPoint x="669" y="2715" as="sourcePoint" />
            <mxPoint x="530" y="2715" as="targetPoint" />
            <Array as="points">
              <mxPoint x="629" y="2740" />
              <mxPoint x="569" y="2740" />
            </Array>
          </mxGeometry>
        </mxCell>
        <mxCell id="XnqLlPuOiqKdLQTun6Gr-83" value="" style="endArrow=classic;html=1;rounded=0;exitX=0.5;exitY=1;exitDx=0;exitDy=0;entryX=0.5;entryY=1;entryDx=0;entryDy=0;" parent="1" edge="1">
          <mxGeometry width="50" height="50" relative="1" as="geometry">
            <mxPoint x="530" y="2715" as="sourcePoint" />
            <mxPoint x="391" y="2715" as="targetPoint" />
            <Array as="points">
              <mxPoint x="490" y="2740" />
              <mxPoint x="430" y="2740" />
            </Array>
          </mxGeometry>
        </mxCell>
        <mxCell id="XnqLlPuOiqKdLQTun6Gr-84" value="" style="endArrow=classic;html=1;rounded=0;exitX=0.5;exitY=1;exitDx=0;exitDy=0;entryX=0.5;entryY=1;entryDx=0;entryDy=0;" parent="1" edge="1">
          <mxGeometry width="50" height="50" relative="1" as="geometry">
            <mxPoint x="389" y="2715" as="sourcePoint" />
            <mxPoint x="250" y="2715" as="targetPoint" />
            <Array as="points">
              <mxPoint x="349" y="2740" />
              <mxPoint x="289" y="2740" />
            </Array>
          </mxGeometry>
        </mxCell>
        <mxCell id="XnqLlPuOiqKdLQTun6Gr-85" value="" style="endArrow=classic;html=1;rounded=0;entryX=0;entryY=0.5;entryDx=0;entryDy=0;" parent="1" edge="1">
          <mxGeometry width="50" height="50" relative="1" as="geometry">
            <mxPoint x="100" y="2658" as="sourcePoint" />
            <mxPoint x="190" y="2657.5" as="targetPoint" />
          </mxGeometry>
        </mxCell>
        <mxCell id="XnqLlPuOiqKdLQTun6Gr-86" value="Request" style="text;html=1;strokeColor=none;fillColor=none;align=center;verticalAlign=middle;whiteSpace=wrap;rounded=0;" parent="1" vertex="1">
          <mxGeometry x="290" y="2560" width="60" height="30" as="geometry" />
        </mxCell>
        <mxCell id="XnqLlPuOiqKdLQTun6Gr-87" value="Request" style="text;html=1;strokeColor=none;fillColor=none;align=center;verticalAlign=middle;whiteSpace=wrap;rounded=0;" parent="1" vertex="1">
          <mxGeometry x="430" y="2560" width="60" height="30" as="geometry" />
        </mxCell>
        <mxCell id="XnqLlPuOiqKdLQTun6Gr-88" value="Request" style="text;html=1;strokeColor=none;fillColor=none;align=center;verticalAlign=middle;whiteSpace=wrap;rounded=0;" parent="1" vertex="1">
          <mxGeometry x="570" y="2560" width="60" height="30" as="geometry" />
        </mxCell>
        <mxCell id="XnqLlPuOiqKdLQTun6Gr-89" value="Request" style="text;html=1;strokeColor=none;fillColor=none;align=center;verticalAlign=middle;whiteSpace=wrap;rounded=0;" parent="1" vertex="1">
          <mxGeometry x="710" y="2560" width="60" height="30" as="geometry" />
        </mxCell>
        <mxCell id="XnqLlPuOiqKdLQTun6Gr-90" value="Response" style="text;html=1;strokeColor=none;fillColor=none;align=center;verticalAlign=middle;whiteSpace=wrap;rounded=0;" parent="1" vertex="1">
          <mxGeometry x="290" y="2740" width="60" height="30" as="geometry" />
        </mxCell>
        <mxCell id="XnqLlPuOiqKdLQTun6Gr-91" value="Response" style="text;html=1;strokeColor=none;fillColor=none;align=center;verticalAlign=middle;whiteSpace=wrap;rounded=0;" parent="1" vertex="1">
          <mxGeometry x="430" y="2740" width="60" height="30" as="geometry" />
        </mxCell>
        <mxCell id="XnqLlPuOiqKdLQTun6Gr-92" value="Response" style="text;html=1;strokeColor=none;fillColor=none;align=center;verticalAlign=middle;whiteSpace=wrap;rounded=0;" parent="1" vertex="1">
          <mxGeometry x="570" y="2740" width="60" height="30" as="geometry" />
        </mxCell>
        <mxCell id="XnqLlPuOiqKdLQTun6Gr-93" value="Response" style="text;html=1;strokeColor=none;fillColor=none;align=center;verticalAlign=middle;whiteSpace=wrap;rounded=0;" parent="1" vertex="1">
          <mxGeometry x="710" y="2740" width="60" height="30" as="geometry" />
        </mxCell>
        <mxCell id="XnqLlPuOiqKdLQTun6Gr-94" value="" style="endArrow=classic;html=1;rounded=0;exitX=0.004;exitY=0.731;exitDx=0;exitDy=0;exitPerimeter=0;" parent="1" source="XnqLlPuOiqKdLQTun6Gr-71" edge="1">
          <mxGeometry width="50" height="50" relative="1" as="geometry">
            <mxPoint x="630" y="2600" as="sourcePoint" />
            <mxPoint x="100" y="2690" as="targetPoint" />
          </mxGeometry>
        </mxCell>
        <mxCell id="x1oeOxsOCvGb8ofFgFnC-4" value="&lt;div&gt;Sidecar A2&lt;/div&gt;&lt;div&gt;priority 4&lt;br&gt;&lt;/div&gt;" style="rounded=0;whiteSpace=wrap;html=1;" vertex="1" parent="1">
          <mxGeometry x="160" y="3020" width="122" height="95" as="geometry" />
        </mxCell>
        <mxCell id="x1oeOxsOCvGb8ofFgFnC-5" value="&lt;div&gt;Sidecar B2&lt;/div&gt;&lt;div&gt;priority 3&lt;br&gt;&lt;/div&gt;" style="rounded=0;whiteSpace=wrap;html=1;" vertex="1" parent="1">
          <mxGeometry x="300" y="3020" width="122" height="95" as="geometry" />
        </mxCell>
        <mxCell id="x1oeOxsOCvGb8ofFgFnC-6" value="&lt;div&gt;Sidecar A1&lt;/div&gt;&lt;div&gt;priotity 2&lt;br&gt;&lt;/div&gt;" style="rounded=0;whiteSpace=wrap;html=1;" vertex="1" parent="1">
          <mxGeometry x="440" y="3020" width="122" height="95" as="geometry" />
        </mxCell>
        <mxCell id="x1oeOxsOCvGb8ofFgFnC-7" value="&lt;div&gt;Sidecar B1&lt;/div&gt;&lt;div&gt;priority 1&lt;br&gt;&lt;/div&gt;" style="rounded=0;whiteSpace=wrap;html=1;" vertex="1" parent="1">
          <mxGeometry x="580" y="3020" width="122" height="95" as="geometry" />
        </mxCell>
        <mxCell id="x1oeOxsOCvGb8ofFgFnC-8" value="User Container" style="rounded=0;whiteSpace=wrap;html=1;" vertex="1" parent="1">
          <mxGeometry x="719.37" y="3020" width="122" height="95" as="geometry" />
        </mxCell>
        <mxCell id="x1oeOxsOCvGb8ofFgFnC-9" value="" style="endArrow=classic;html=1;rounded=0;exitX=0.5;exitY=0;exitDx=0;exitDy=0;entryX=0.5;entryY=0;entryDx=0;entryDy=0;" edge="1" parent="1" source="x1oeOxsOCvGb8ofFgFnC-4" target="x1oeOxsOCvGb8ofFgFnC-5">
          <mxGeometry width="50" height="50" relative="1" as="geometry">
            <mxPoint x="600" y="3000" as="sourcePoint" />
            <mxPoint x="650" y="2950" as="targetPoint" />
            <Array as="points">
              <mxPoint x="260" y="2990" />
              <mxPoint x="320" y="2990" />
            </Array>
          </mxGeometry>
        </mxCell>
        <mxCell id="x1oeOxsOCvGb8ofFgFnC-10" value="" style="endArrow=classic;html=1;rounded=0;exitX=0.5;exitY=0;exitDx=0;exitDy=0;entryX=0.5;entryY=0;entryDx=0;entryDy=0;" edge="1" parent="1">
          <mxGeometry width="50" height="50" relative="1" as="geometry">
            <mxPoint x="360" y="3020" as="sourcePoint" />
            <mxPoint x="500" y="3020" as="targetPoint" />
            <Array as="points">
              <mxPoint x="399" y="2990" />
              <mxPoint x="459" y="2990" />
            </Array>
          </mxGeometry>
        </mxCell>
        <mxCell id="x1oeOxsOCvGb8ofFgFnC-11" value="" style="endArrow=classic;html=1;rounded=0;exitX=0.5;exitY=0;exitDx=0;exitDy=0;entryX=0.5;entryY=0;entryDx=0;entryDy=0;" edge="1" parent="1">
          <mxGeometry width="50" height="50" relative="1" as="geometry">
            <mxPoint x="500" y="3020" as="sourcePoint" />
            <mxPoint x="640" y="3020" as="targetPoint" />
            <Array as="points">
              <mxPoint x="539" y="2990" />
              <mxPoint x="599" y="2990" />
            </Array>
          </mxGeometry>
        </mxCell>
        <mxCell id="x1oeOxsOCvGb8ofFgFnC-12" value="" style="endArrow=classic;html=1;rounded=0;exitX=0.5;exitY=0;exitDx=0;exitDy=0;entryX=0.5;entryY=0;entryDx=0;entryDy=0;" edge="1" parent="1">
          <mxGeometry width="50" height="50" relative="1" as="geometry">
            <mxPoint x="640" y="3020" as="sourcePoint" />
            <mxPoint x="780" y="3020" as="targetPoint" />
            <Array as="points">
              <mxPoint x="679" y="2990" />
              <mxPoint x="739" y="2990" />
            </Array>
          </mxGeometry>
        </mxCell>
        <mxCell id="x1oeOxsOCvGb8ofFgFnC-13" value="" style="endArrow=classic;html=1;rounded=0;exitX=0.5;exitY=1;exitDx=0;exitDy=0;entryX=0.5;entryY=1;entryDx=0;entryDy=0;" edge="1" parent="1" source="x1oeOxsOCvGb8ofFgFnC-8" target="x1oeOxsOCvGb8ofFgFnC-7">
          <mxGeometry width="50" height="50" relative="1" as="geometry">
            <mxPoint x="600" y="3000" as="sourcePoint" />
            <mxPoint x="650" y="2950" as="targetPoint" />
            <Array as="points">
              <mxPoint x="740" y="3140" />
              <mxPoint x="680" y="3140" />
            </Array>
          </mxGeometry>
        </mxCell>
        <mxCell id="x1oeOxsOCvGb8ofFgFnC-14" value="" style="endArrow=classic;html=1;rounded=0;exitX=0.5;exitY=1;exitDx=0;exitDy=0;entryX=0.5;entryY=1;entryDx=0;entryDy=0;" edge="1" parent="1">
          <mxGeometry width="50" height="50" relative="1" as="geometry">
            <mxPoint x="639" y="3115" as="sourcePoint" />
            <mxPoint x="500" y="3115" as="targetPoint" />
            <Array as="points">
              <mxPoint x="599" y="3140" />
              <mxPoint x="539" y="3140" />
            </Array>
          </mxGeometry>
        </mxCell>
        <mxCell id="x1oeOxsOCvGb8ofFgFnC-15" value="" style="endArrow=classic;html=1;rounded=0;exitX=0.5;exitY=1;exitDx=0;exitDy=0;entryX=0.5;entryY=1;entryDx=0;entryDy=0;" edge="1" parent="1">
          <mxGeometry width="50" height="50" relative="1" as="geometry">
            <mxPoint x="500" y="3115" as="sourcePoint" />
            <mxPoint x="361" y="3115" as="targetPoint" />
            <Array as="points">
              <mxPoint x="460" y="3140" />
              <mxPoint x="400" y="3140" />
            </Array>
          </mxGeometry>
        </mxCell>
        <mxCell id="x1oeOxsOCvGb8ofFgFnC-16" value="" style="endArrow=classic;html=1;rounded=0;exitX=0.5;exitY=1;exitDx=0;exitDy=0;entryX=0.5;entryY=1;entryDx=0;entryDy=0;" edge="1" parent="1">
          <mxGeometry width="50" height="50" relative="1" as="geometry">
            <mxPoint x="359" y="3115" as="sourcePoint" />
            <mxPoint x="220" y="3115" as="targetPoint" />
            <Array as="points">
              <mxPoint x="319" y="3140" />
              <mxPoint x="259" y="3140" />
            </Array>
          </mxGeometry>
        </mxCell>
        <mxCell id="x1oeOxsOCvGb8ofFgFnC-18" value="Request" style="text;html=1;strokeColor=none;fillColor=none;align=center;verticalAlign=middle;whiteSpace=wrap;rounded=0;" vertex="1" parent="1">
          <mxGeometry x="260" y="2960" width="60" height="30" as="geometry" />
        </mxCell>
        <mxCell id="x1oeOxsOCvGb8ofFgFnC-19" value="Request" style="text;html=1;strokeColor=none;fillColor=none;align=center;verticalAlign=middle;whiteSpace=wrap;rounded=0;" vertex="1" parent="1">
          <mxGeometry x="400" y="2960" width="60" height="30" as="geometry" />
        </mxCell>
        <mxCell id="x1oeOxsOCvGb8ofFgFnC-20" value="Request" style="text;html=1;strokeColor=none;fillColor=none;align=center;verticalAlign=middle;whiteSpace=wrap;rounded=0;" vertex="1" parent="1">
          <mxGeometry x="540" y="2960" width="60" height="30" as="geometry" />
        </mxCell>
        <mxCell id="x1oeOxsOCvGb8ofFgFnC-21" value="Request" style="text;html=1;strokeColor=none;fillColor=none;align=center;verticalAlign=middle;whiteSpace=wrap;rounded=0;" vertex="1" parent="1">
          <mxGeometry x="680" y="2960" width="60" height="30" as="geometry" />
        </mxCell>
        <mxCell id="x1oeOxsOCvGb8ofFgFnC-22" value="Response" style="text;html=1;strokeColor=none;fillColor=none;align=center;verticalAlign=middle;whiteSpace=wrap;rounded=0;" vertex="1" parent="1">
          <mxGeometry x="260" y="3140" width="60" height="30" as="geometry" />
        </mxCell>
        <mxCell id="x1oeOxsOCvGb8ofFgFnC-23" value="Response" style="text;html=1;strokeColor=none;fillColor=none;align=center;verticalAlign=middle;whiteSpace=wrap;rounded=0;" vertex="1" parent="1">
          <mxGeometry x="400" y="3140" width="60" height="30" as="geometry" />
        </mxCell>
        <mxCell id="x1oeOxsOCvGb8ofFgFnC-24" value="Response" style="text;html=1;strokeColor=none;fillColor=none;align=center;verticalAlign=middle;whiteSpace=wrap;rounded=0;" vertex="1" parent="1">
          <mxGeometry x="540" y="3140" width="60" height="30" as="geometry" />
        </mxCell>
        <mxCell id="x1oeOxsOCvGb8ofFgFnC-25" value="Response" style="text;html=1;strokeColor=none;fillColor=none;align=center;verticalAlign=middle;whiteSpace=wrap;rounded=0;" vertex="1" parent="1">
          <mxGeometry x="680" y="3140" width="60" height="30" as="geometry" />
        </mxCell>
        <mxCell id="x1oeOxsOCvGb8ofFgFnC-27" value="&lt;div&gt;Sidecar A1&lt;/div&gt;&lt;div&gt;priotity 2&lt;br&gt;&lt;/div&gt;" style="rounded=0;whiteSpace=wrap;html=1;" vertex="1" parent="1">
          <mxGeometry x="205" y="3222.5" width="122" height="95" as="geometry" />
        </mxCell>
        <mxCell id="x1oeOxsOCvGb8ofFgFnC-28" value="&lt;div&gt;Sidecar A2&lt;/div&gt;&lt;div&gt;priority 4&lt;br&gt;&lt;/div&gt;" style="rounded=0;whiteSpace=wrap;html=1;" vertex="1" parent="1">
          <mxGeometry x="345" y="3222.5" width="122" height="95" as="geometry" />
        </mxCell>
        <mxCell id="x1oeOxsOCvGb8ofFgFnC-29" value="&lt;div&gt;Sidecar B1&lt;/div&gt;&lt;div&gt;priority 1&lt;br&gt;&lt;/div&gt;" style="rounded=0;whiteSpace=wrap;html=1;" vertex="1" parent="1">
          <mxGeometry x="540.63" y="3220" width="122" height="95" as="geometry" />
        </mxCell>
        <mxCell id="x1oeOxsOCvGb8ofFgFnC-30" value="&lt;div&gt;Sidecar B2&lt;/div&gt;&lt;div&gt;priority 3&lt;br&gt;&lt;/div&gt;" style="rounded=0;whiteSpace=wrap;html=1;" vertex="1" parent="1">
          <mxGeometry x="680.63" y="3220" width="122" height="95" as="geometry" />
        </mxCell>
        <mxCell id="x1oeOxsOCvGb8ofFgFnC-53" value="FilterChain A" style="text;html=1;strokeColor=none;fillColor=none;align=center;verticalAlign=middle;whiteSpace=wrap;rounded=0;" vertex="1" parent="1">
          <mxGeometry x="191" y="3190" width="99" height="30" as="geometry" />
        </mxCell>
        <mxCell id="x1oeOxsOCvGb8ofFgFnC-54" value="FilterChain B" style="text;html=1;strokeColor=none;fillColor=none;align=center;verticalAlign=middle;whiteSpace=wrap;rounded=0;" vertex="1" parent="1">
          <mxGeometry x="520" y="3190" width="110" height="30" as="geometry" />
        </mxCell>
      </root>
    </mxGraphModel>
  </diagram>
</mxfile>
